<?xml version="1.0" encoding="utf-8"?>
<!-- Generator: Adobe Illustrator 19.2.0, SVG Export Plug-In . SVG Version: 6.00 Build 0)  -->
<svg version="1.1" xmlns="http://www.w3.org/2000/svg" xmlns:xlink="http://www.w3.org/1999/xlink" x="0px" y="0px"
	 viewBox="0 0 240.9 155.9" style="enable-background:new 0 0 240.9 155.9;" xml:space="preserve">
<style type="text/css">
	.st0{fill:#0068D1;}
	.st1{fill:none;}
	.st2{fill:#FFFFFF;}
</style>
<g id="Layer_2">
	<!--<circle class="st0" cx="125.2" cy="78" r="59.5"/>-->
	<rect class="st0" x="65.7" y="18.5" width="119" height="119"/>
	<path class="st1" d="M155,40.1"/>
</g>
<g id="Layer_1">
	<path class="st2" d="M124.1,95.1c-7.3-3.2-14.8-3.3-22.4-1.6c0-0.2,0-0.4,0-0.6c0-11.6,0-23.3,0-34.9c0-0.5,0.2-0.7,0.6-1
		c1.4-0.8,3-1.1,4.6-1.3c6-0.6,11.6,0.9,16.7,4.1c0.4,0.3,0.5,0.5,0.5,1c0,11.2,0,22.4,0,33.6C124.1,94.6,124.1,94.8,124.1,95.1z"/>
	<path class="st2" d="M148.8,93.5c-7.7-1.7-15.1-1.6-22.4,1.6c0-0.2,0-0.4,0-0.6c0-11.2,0-22.4,0-33.7c0-0.5,0.2-0.7,0.5-1
		c3.3-2.2,7-3.5,11-4.1c2.9-0.4,5.9-0.3,8.7,0.5c0,0,0.1,0,0.1,0c2,0.6,2.1,0.7,2.1,2.8c0,11.2,0,22.4,0,33.6
		C148.8,92.9,148.8,93.2,148.8,93.5z"/>
	<path class="st2" d="M96.9,98.6c1.5-0.2,2.9-0.4,4.4-0.5c4.7-0.5,9.5-0.8,14.2-0.1c2.5,0.4,5,1,7.4,1.6c0.9,0.2,1.3,0.9,1.2,1.8
		c-0.1,0.8-0.7,1.2-1.6,1.2c-9.4,0-18.9,0-28.3,0c-0.2,0-0.5,0-0.7,0c-0.6-0.1-1-0.4-1.1-1c-0.1-0.4-0.1-0.8-0.1-1.2
		c0-12.7,0-25.4,0-38c0-1.1,0.8-2,2-2.2c0.9-0.2,2.2,0.5,2.5,1.4c0.1,0.3,0.1,0.6,0.1,0.9c0,11.8,0,23.5,0,35.3
		C96.9,98.1,96.9,98.3,96.9,98.6z"/>
	<path class="st2" d="M153.6,98.6c0-0.3,0-0.5,0-0.8c0-11.8,0-23.5,0-35.3c0-1.2,0.6-2,1.7-2.3c0.9-0.3,2.2,0.2,2.7,1.1
		c0.2,0.3,0.2,0.6,0.2,0.9c0,12.8,0,25.6,0,38.4c0,0.3,0,0.6-0.1,0.9c-0.1,0.6-0.5,0.9-1.1,1c-0.1,0-0.3,0-0.4,0
		c-9.6,0-19.1,0-28.7,0c-0.8,0-1.3-0.3-1.5-0.9c-0.2-0.6,0-1.4,0.5-1.8c0.2-0.1,0.4-0.2,0.6-0.3c4.9-1.4,10-2.2,15.1-2
		c3.1,0.2,6.3,0.5,9.4,0.8C152.6,98.5,153.1,98.6,153.6,98.6z"/>
</g>
</svg>
