<?xml version="1.0" encoding="utf-8"?>
<!-- Generator: Adobe Illustrator 19.2.0, SVG Export Plug-In . SVG Version: 6.00 Build 0)  -->
<svg version="1.1" xmlns="http://www.w3.org/2000/svg" xmlns:xlink="http://www.w3.org/1999/xlink" x="0px" y="0px"
	 viewBox="0 0 240.9 155.9" style="enable-background:new 0 0 240.9 155.9;" xml:space="preserve">
<style type="text/css">
	.st0{fill:#0068D1;}
	.st1{fill:none;}
	.st2{fill:#F4F4F4;}
</style>
<g id="Layer_2">
	<!--<circle class="st0" cx="125.2" cy="78" r="59.5"/>-->
	<rect class="st0" x="65.7" y="18.5" width="119" height="119"/>
	<path class="st1" d="M155,40.1"/>
</g>
<g id="Layer_1">
	<g>
		<path class="st2" d="M124.7,54.4c9.3,0,18.7,0,28,0c1.1,0,1.4,0.4,1.4,1.4c0,11.7,0,23.5,0,35.2c0,1.5,0,1.5-1.4,1.5
			c-6.7,0-13.5,0-20.2,0c-1.5,0-1.6,0.1-0.9,1.5c3,6.8,6,13.6,9.1,20.4c0.6,1.3,0.6,1.2-0.8,1.4c-2.6,0.4-4-0.6-4.7-3.1
			c-0.4-1.4-1.2-2.6-1.7-3.9c-0.2-0.6-0.6-0.8-1.2-0.8c-1.7,0-3.5,0-5.2,0c-0.9,0-1.2,0.3-1.2,1.2c0,3.5,0,6.9,0,10.4
			c0,0.7,0.1,1.3-1,1.3c-1,0-1.1-0.5-1.1-1.3c0-3.4,0-6.8,0-10.2c0-1-0.3-1.5-1.4-1.4c-1.7,0.1-3.3,0.1-5,0c-0.7,0-1.1,0.2-1.3,0.9
			c-0.9,2-1.8,4-2.7,6c-0.3,0.7-0.7,1-1.4,0.9c-0.9-0.1-1.8-0.1-2.7,0c-0.9,0.1-1-0.3-0.6-1c1.8-3.9,3.6-7.9,5.3-11.8
			c1.4-3.1,2.8-6.1,4.1-9.2c0.5-1.1,0.4-1.2-0.8-1.2c-6.9,0-13.7,0-20.6,0c-1.4,0-1.4,0-1.4-1.5c0-11.7,0-23.5,0-35.2
			c0-1.1,0.3-1.5,1.4-1.4C106,54.4,115.3,54.4,124.7,54.4z M113.3,67C113.3,67,113.3,67,113.3,67c0-1.4,0-2.9,0-4.3
			c0-0.7-0.3-1-1-0.9c-6.5,0.5-11.1,7-9.3,13.3c1.4,4.9,6,8.1,11.1,7.6c4.8-0.4,8.9-4.4,9.4-9.2c0.1-1.2,0-1.4-1.2-1.4
			c-2.6,0-5.2,0-7.9,0c-0.8,0-1.2-0.2-1.2-1.1C113.4,69.7,113.3,68.4,113.3,67z M123.3,92.9c-0.1,0.1-0.2,0.2-0.3,0.3
			c-1.8,3.9-3.5,7.8-5.3,11.7c-0.3,0.7,0,0.9,0.6,0.9c1.3,0,2.6-0.1,3.9,0c1.1,0.1,1.4-0.3,1.4-1.4c0-3.5,0-6.9,0-10.4
			C123.7,93.6,123.8,93.2,123.3,92.9z M125.8,99.2c0,1.8,0,3.7,0,5.5c0,0.7,0.3,1.1,1,1c1.4,0,2.7,0,4.1,0c0.8,0,1-0.3,0.7-1
			c-1.7-3.8-3.3-7.5-5-11.3c-0.1-0.2-0.2-0.6-0.5-0.5c-0.4,0.1-0.3,0.5-0.3,0.7C125.8,95.5,125.8,97.4,125.8,99.2z M140.1,66.8
			c-1.8,0-3.6,0-5.4,0c-1.1,0-1.2,0.5-1.2,1.4c0.1,0.8-0.2,1.7,1.2,1.7c3.6-0.1,7.3,0,10.9,0c1.2,0,1.2-0.7,1.2-1.5
			c0-0.8,0.1-1.6-1.1-1.5C143.8,66.9,141.9,66.8,140.1,66.8z M140,75c1.9,0,3.8,0,5.6,0c1.2,0,1.1-0.7,1.1-1.5
			c0-0.8,0.1-1.6-1.1-1.6c-3.7,0-7.4,0-11,0c-1.3,0-1.1,0.9-1.1,1.7c0,0.8,0,1.4,1.1,1.4C136.4,74.9,138.2,75,140,75z M140.1,64.6
			c1.8,0,3.6-0.1,5.4,0c1.2,0.1,1.2-0.5,1.2-1.4c0-0.9,0-1.5-1.3-1.5c-3.4,0.1-6.8,0-10.3,0c-1.8,0-1.8,0-1.8,1.9c0,0.7,0.2,1,1,1
			C136.4,64.6,138.2,64.6,140.1,64.6z M140.1,80.1c1.8,0,3.7-0.1,5.5,0c1.2,0.1,1.1-0.7,1.1-1.5c0-0.8,0.1-1.4-1.1-1.4
			c-3.7,0.1-7.4,0.1-11,0c-1,0-1.2,0.4-1.1,1.3c0.1,0.7-0.3,1.7,1.1,1.6C136.4,80,138.3,80.1,140.1,80.1z M140.1,85.2
			c1.9,0,3.8,0,5.6,0c1.1,0,1.1-0.7,1-1.4c0-0.7,0.2-1.6-1-1.5c-1.5,0-3.1,0-4.6,0c-2.1,0-4.1,0-6.2,0c-1.4,0-1.4,0-1.5,1.5
			c-0.1,1.1,0.3,1.5,1.4,1.4C136.6,85.1,138.4,85.2,140.1,85.2z M131.3,68.3c0-1.5,0-1.5-1.4-1.5c-1.5,0-1.5,0-1.5,1.6
			c0,1.4,0.1,1.5,1.5,1.5C131.2,69.9,131.3,69.8,131.3,68.3z M131.3,73.6c0-1.6,0-1.6-1.4-1.6c-1,0-1.5,0.2-1.5,1.4
			c0.1,1.6,0,1.6,1.4,1.7C131.3,75,131.3,75,131.3,73.6z M129.6,64.6c1.7,0,1.7,0,1.7-1.3c0-1.5,0-1.5-1.4-1.5c-1.5,0-1.5,0-1.5,1.4
			C128.4,64.1,128.4,64.9,129.6,64.6z M129.9,77.2c-1.5,0-1.5,0-1.5,1.4c0,1.5,0,1.4,1.4,1.5c1.1,0.1,1.5-0.2,1.4-1.4
			C131.2,77.2,131.3,77.2,129.9,77.2z M131.3,83.8c0-1.5,0-1.4-1.4-1.5c-1,0-1.6,0.1-1.5,1.4c0.1,1.5,0,1.5,1.4,1.5
			C131.3,85.2,131.3,85.2,131.3,83.8z"/>
		<path class="st2" d="M124.6,51.5c-9.4,0-18.7,0-28.1,0c-0.6,0-1.2,0-1.9-0.2c-1.2-0.3-2-1.2-1.9-2.5c0.1-1.1,0.9-2.1,2.1-2.2
			c0.4,0,0.7,0,1.1,0c8.3,0,16.6,0,24.9,0c1.5,0,1.5,0,1.5-1.5c0-0.4,0-0.8,0-1.2c0.1-1.3,1-2.3,2.3-2.3c1.3,0,2.3,1,2.4,2.3
			c0,0.6,0,1.3,0,1.9c0,0.7,0.2,0.9,0.9,0.9c0.9,0,1.8,0,2.7,0c7.7,0,15.4,0,23.1,0c1.6,0,2.7,0.9,2.8,2.2c0.1,1.2-0.6,2.1-1.8,2.4
			c-0.6,0.2-1.2,0.2-1.9,0.2C143.4,51.5,134,51.5,124.6,51.5z"/>
	</g>
</g>
</svg>
