<?xml version="1.0" encoding="utf-8"?>
<!-- Generator: Adobe Illustrator 19.2.0, SVG Export Plug-In . SVG Version: 6.00 Build 0)  -->
<svg version="1.1" xmlns="http://www.w3.org/2000/svg" xmlns:xlink="http://www.w3.org/1999/xlink" x="0px" y="0px"
	 viewBox="0 0 240.9 155.9" style="enable-background:new 0 0 240.9 155.9;" xml:space="preserve">
<style type="text/css">
	.st0{fill:#0068D1;}
	.st1{fill:none;}
	.st2{fill:#F4F4F4;}
</style>
<g id="Layer_2">
	<!--<circle class="st0" cx="125.2" cy="78" r="59.5"/>-->
	<rect class="st0" x="65.7" y="18.5" width="119" height="119"/>
	<path class="st1" d="M155,40.1"/>
</g>
<g id="Layer_1">
	<path class="st2" d="M157,74.1c-0.9,0-1.3-0.3-1.4-1.1c-0.2-1.1-0.5-2.3-0.7-3.4c-0.1-0.8,0-1.7-0.1-2.5c0-0.3-0.1-0.7-0.2-1
		c-0.5-1.9-1.1-3.8-1.5-5.7c-0.3-1.3-1.1-2.2-2.1-2.9c-0.3-0.2-0.5-0.5-0.7-0.7c-1.7-2.9-3.4-5.9-5.1-8.8c-0.3-0.5-0.5-1.1-0.7-1.6
		c-0.2,2.4-0.3,4.9-0.5,7.3c-0.1,1.2-0.1,2.5-0.3,3.7c-0.1,0.7-0.3,1.3-0.6,1.9c-0.9,1.9-0.7,3.9-0.3,5.9c0,0.3,0.1,0.5,0.1,1
		c-5.6-5.2-11.1-10.3-16.6-15.5c-5.5,5.1-10.9,10.2-16.5,15.5c0.1-0.9,0.1-1.5,0.3-2.1c0.5-2-0.1-3.7-0.8-5.6
		c-0.4-1.1-0.4-2.4-0.5-3.6c-0.2-2.9-0.4-5.7-0.6-8.2c-1.3,2.3-2.8,4.9-4.3,7.5c-0.9,1.5-1.6,3.2-3.2,4.3c-0.4,0.3-0.7,0.9-0.9,1.4
		c-0.6,2.1-1.2,4.2-1.7,6.3c-0.1,0.4,0,0.9,0,1.4c0,0.1,0.1,0.3,0.1,0.4c-0.4,1.9-0.8,3.9-1.3,5.8c0,0.2-0.6,0.3-0.9,0.3
		c-4.3,0-8.5,0-12.8,0.1v29.7c0.6,0,1.2,0,1.9,0c28.1,0,56.2,0,84.3,0V74.1C165.4,74.1,161.2,74.1,157,74.1z M106.7,100
		c0,0.2-0.3,0.5-0.5,0.7c-0.1-0.1-0.3-0.2-0.4-0.3c0.4-3.9,0.9-7.9,1.3-11.8c0.2,0,0.3,0,0.5-0.1c0.1,0.3,0.3,0.7,0.3,1
		C107.5,93,107.1,96.5,106.7,100z M126.6,66.4c1.3,0,2.3,0.9,2.3,1.9c0,1-1.1,1.8-2.4,1.8c-1.3,0-2.3-0.8-2.3-1.8
		C124.2,67.2,125.3,66.3,126.6,66.4z M118.7,101.2c-1.5,0-2.8,0-4.2,0c0-0.7,0-1.3,0-1.9c0.2-3.5,0.4-7.1,0.7-10.6
		c0.1-1.5,0.9-2.2,2.2-2.2c1,0,1.9,0.7,1.9,1.8C119.1,92.6,118.9,96.9,118.7,101.2z M123,74.1c0-0.4,0.8-1,1.3-1.1
		c0.6-0.2,1.4,0.1,1.5,0.8c0,0.4,0.1,0.9,0.1,1.3v5.1c-1.1,0-2.1,0-3,0C122.9,78.1,122.8,76.1,123,74.1z M128.7,101.3
		c-1.5,0-2.8,0-4.3,0c0-0.3,0-0.7,0-1c0.1-3.9,0.1-7.9,0.2-11.8c0-1.1,0.9-2,1.9-2c1,0,1.9,0.9,2,1.9c0.1,4,0.1,7.9,0.2,11.9
		C128.7,100.6,128.7,100.9,128.7,101.3z M130.2,80.2c-0.9,0-1.9,0-3,0v-5.2c0-0.3,0-0.6,0.1-0.9c0.1-1,0.8-1.1,1.5-1.1
		c0.7,0,1.4,0.4,1.4,1.2C130.2,76.1,130.2,78.1,130.2,80.2z M134.4,101.2c-0.1-2.4-0.2-4.7-0.3-7.1c-0.1-1.8-0.2-3.7-0.2-5.5
		c0-1.1,0.6-2,1.5-2.1c1.2-0.2,2.3,0.5,2.4,1.7c0.3,4.3,0.6,8.7,0.9,13.1C137.1,101.2,135.8,101.2,134.4,101.2z M146.9,100.7
		c-0.2-0.2-0.5-0.4-0.5-0.7c-0.4-3.5-0.8-7-1.2-10.5c0-0.3,0.2-0.6,0.5-0.9c0.9,3.9,1.1,7.9,1.6,11.9
		C147.1,100.5,147,100.6,146.9,100.7z"/>
</g>
</svg>
