<?xml version="1.0" encoding="utf-8"?>
<!-- Generator: Adobe Illustrator 19.2.0, SVG Export Plug-In . SVG Version: 6.00 Build 0)  -->
<svg version="1.1" xmlns="http://www.w3.org/2000/svg" xmlns:xlink="http://www.w3.org/1999/xlink" x="0px" y="0px"
	 viewBox="0 0 240.9 155.9" style="enable-background:new 0 0 240.9 155.9;" xml:space="preserve">
<style type="text/css">
	.st0{fill:#0068D1;}
	.st1{fill:none;}
	.st2{fill:#F4F4F4;}
</style>
<g id="Layer_2">
	<!--<circle class="st0" cx="125.2" cy="78" r="59.5"/>-->
	<rect class="st0" x="65.7" y="18.5" width="119" height="119"/>
	<path class="st1" d="M155,40.1"/>
</g>
<g id="Layer_1">
	<path class="st2" d="M168.9,99.8c0-10.7,0-21.4,0-32.2c-5,0-9.8,0-14.8,0c0-1,0-1.9,0-2.7c0-0.7-0.1-1-0.7-1.3
		c-2.9-1.6-5.7-3.2-8.6-4.8c-5.9-3.3-11.7-6.6-17.6-9.9c-0.1-0.1-0.2-0.1-0.3-0.2H125c-0.1,0.1-0.2,0.1-0.3,0.2
		c-8.5,4.9-16.9,9.8-25.4,14.6c-1.3,0.7-2,1.5-1.7,3.2c0.2,0.9-0.2,1.1-1,1.1c-4.2,0-8.4,0-12.7,0c-0.3,0-0.7,0-1.1,0
		c0,10.8,0,21.5,0,32.3c-1.1-0.2-1.2,0.5-1.1,1.3c0,0.4,0,0.7,0,1.1c0,1.5,0,1.5,1.3,1.5c11.9,0,23.8,0,35.7,0c16.8,0,33.5,0,50.3,0
		c0.3,0,0.7-0.1,1-0.1c0-1.3,0-2.5,0-3.7C169.7,100,169.4,99.9,168.9,99.8z M160.1,78.7c1.4,0,2.7,0,4,0c0.2,0,0.5,0.3,0.5,0.5
		c0,2,0,4.1,0,6.1c0,0.2-0.3,0.5-0.5,0.5c-1.3,0-2.6,0-4,0C160.1,83.5,160.1,81.2,160.1,78.7z M91.7,94.3c0,0.2-0.4,0.6-0.6,0.6
		c-1.2,0.1-2.3,0.1-3.5,0c-0.2,0-0.5-0.4-0.5-0.6c0-2.2,0-4.3,0-6.7c1.4,0,2.7,0,4,0c0.2,0,0.5,0.4,0.5,0.6
		C91.8,90.3,91.8,92.3,91.7,94.3z M91.5,85.8c-0.4,0.5-1.5,0.2-2.3,0.2c-0.6,0-1.3,0-2,0c0-2.5,0-4.8,0-7.2c1.5,0,2.9,0,4.5,0
		c0,1.4,0,2.8,0,4.3C91.7,84,92,85.2,91.5,85.8z M97.6,95c-1.1,0-2.2,0-3.3,0c-0.2,0-0.6-0.3-0.6-0.5c0-2.2,0-4.5,0-6.7
		c1.5,0,3,0,4.5,0c0,2.3,0,4.4,0,6.5C98.2,94.8,98,95,97.6,95z M97.4,86c-1-0.1-2,0-3,0c-0.2,0-0.6-0.3-0.6-0.5c0-2.2,0-4.4,0-6.7
		c1.6,0,3,0,4.5,0c0,1.4,0,2.7,0,4.1c0,0.7,0,1.4,0,2.1C98.3,85.7,98.1,86,97.4,86z M124.8,98.7c-2,0-3.9,0-5.9,0c0-0.4,0-0.8,0-1.2
		c0-4.7,0-9.4,0-14c0-2.6,1.1-3.8,3.4-3.8c0.8,0,1.7,0,2.6,0C124.8,86,124.8,92.3,124.8,98.7z M133.2,97.8c0,0.4-0.1,0.8-0.6,0.8
		c-1.9,0-3.7,0-5.7,0c0-6.3,0-12.6,0-19c1.3,0,2.5-0.1,3.8,0c1.4,0.1,2.4,1.5,2.5,3.2C133.2,87.7,133.2,92.7,133.2,97.8z
		 M152.5,99.9c-0.2,0-0.5,0.1-0.8,0.1c-4.1,0-8.2,0-12.2,0c-0.6,0-0.8-0.2-0.9-0.9c0-2.3,0-2.3,2-2.3c0.6,0,1.1,0,1.8,0
		c0-6.8,0-13.6,0-20.4c-11,0-21.9,0-33,0c0,6.7,0,13.5,0,20.3c1.2,0,2.4,0,3.7,0c0,1.1,0,2.1,0,3.2c-0.2,0-0.5,0-0.8,0
		c-4,0-8.1,0-12.1,0c-0.7,0-0.9-0.2-0.9-1c0-2.2,0-2.2,2-2.2c0.5,0,1,0,1.6,0c0-6.9,0-13.6,0-20.4c-1.7,0-3.4,0-5.2,0
		c0-1.1,0-2.1,0-3.1c0-0.2,0.5-0.5,0.7-0.5c2.4,0,4.9,0,7.3,0c15.7,0,31.5,0,47.2,0c0.4,0,0.7,0,1.2,0c0,1.2,0,2.3,0,3.6
		c-1.7,0-3.4,0-5.2,0c0,6.8,0,13.6,0,20.4c1.2,0,2.3,0,3.6,0C152.5,97.8,152.5,98.8,152.5,99.9z M158,95c-1.4,0-2.7,0-4.1,0
		c-0.1,0-0.4-0.4-0.4-0.6c0-2,0-4,0-6c0-0.2,0.3-0.5,0.5-0.6c1.3,0,2.6,0,4,0C158,90.1,158,92.5,158,95z M158,86c-1.4,0-2.8,0-4.1,0
		c-0.1,0-0.3-0.3-0.3-0.5c0-2.2,0-4.3,0-6.6c1.6,0,3,0,4.5,0C158,81.1,158,83.5,158,86z M164.6,94.3c0,0.2-0.3,0.6-0.4,0.6
		c-1.3,0.1-2.6,0-4.1,0c0-2.5,0-4.8,0-7.2c1.4,0,2.8,0,4.1,0c0.1,0,0.4,0.4,0.4,0.6C164.6,90.3,164.6,92.3,164.6,94.3z"/>
</g>
</svg>
