<?xml version="1.0" encoding="utf-8"?>
<!-- Generator: Adobe Illustrator 19.0.1, SVG Export Plug-In . SVG Version: 6.00 Build 0)  -->
<svg version="1.1" xmlns="http://www.w3.org/2000/svg" xmlns:xlink="http://www.w3.org/1999/xlink" x="0px" y="0px"
	 viewBox="0 0 240.9 155.9" style="enable-background:new 0 0 240.9 155.9;" xml:space="preserve">
<style type="text/css">
	.st0{fill:#0057A0;}
	.st1{fill:#F4F4F4;}
</style>
<g id="Layer_2">
	<circle class="st0" cx="125.2" cy="78" r="59.5"/>
</g>
<g id="Layer_1">
	<path class="st1" d="M141.3,51.5c-11.5,0-23,0-34.4,0c-0.5-2.1,0.5-4,2.4-4.6c0.5-0.2,0.8-0.5,0.8-1c0.1-5,3.5-9.4,8.4-11.1
		c0.5-0.2,0.8-0.1,0.9,0.4c0.6,2.4,1.2,4.8,1.8,7.2c0.1,0.4,0.2,0.8,0.4,1.2c0-0.6,0-1.2,0-1.8c0-2.5,0-4.9,0-7.4
		c0-1.4,0.5-1.9,1.9-1.9c0.3,0,0.7,0,1,0c1.4,0,1.9,0.5,1.9,2c0,2.8,0,5.5,0,8.3c0,0.3,0,0.6,0,0.9c0,0,0.1,0,0.1,0
		c0.3-1.4,0.6-2.8,0.9-4.2c0.3-1.4,0.8-2.8,1.2-4.2c0.1-0.5,0.4-0.6,0.9-0.4c4.9,1.6,8.2,5.9,8.5,11.1c0,0.5,0.1,0.8,0.6,0.9
		c2,0.4,2.5,2,2.6,3.7c0,0.2,0,0.5,0,0.7C141.4,51.2,141.3,51.3,141.3,51.5z"/>
	<path class="st1" d="M140.1,52.7h-32c-1.5,3.2-2.1,6.9-1.5,10.6c1.7,10.3,12,16.9,22,14.2c8.5-2.3,14-10.4,13.1-19
		C141.5,56.5,140.9,54.5,140.1,52.7z"/>
	<path class="st1" d="M123.9,113.8c11.3,0,21.9-0.9,31.3-2.6c-0.3-5.2-1.3-10-2.9-14.7c-3.3-9.3-8.6-16.2-16.1-20.3
		c-0.5-0.3-0.8-0.2-1.2,0.1c-3.2,2-5.8,2.5-9.1,2.8c-4.5,0.4-8.4-0.7-12.8-2.9c-0.2-0.1-0.6-0.2-0.8-0.1c-3.5,1.7-6.5,4.3-9.2,7.5
		c-4.9,5.9-7.9,13.2-9.3,21.5c-0.3,2-0.5,4.1-0.8,6.1C102.2,112.9,112.7,113.8,123.9,113.8z"/>
</g>
</svg>
