<?xml version="1.0" encoding="utf-8"?>
<!-- Generator: Adobe Illustrator 19.0.1, SVG Export Plug-In . SVG Version: 6.00 Build 0)  -->
<svg version="1.1" xmlns="http://www.w3.org/2000/svg" xmlns:xlink="http://www.w3.org/1999/xlink" x="0px" y="0px"
	 viewBox="0 0 240.9 155.9" style="enable-background:new 0 0 240.9 155.9;" xml:space="preserve">
<style type="text/css">
	.st0{fill:#0057A0;}
	.st1{fill:none;}
	.st2{fill:#F4F4F4;}
	.st3{font-family:'MyriadPro-SemiboldIt';}
	.st4{font-size:75.0528px;}
</style>
<g id="Layer_2">
	<circle class="st0" cx="125.2" cy="78" r="59.5"/>
	<path class="st1" d="M155,40.1"/>
	<text transform="matrix(1.1176 0 0 1 92.8184 107.7411)" class="st2 st3 st4">@</text>
	<rect x="101" y="57.2" class="st0" width="49.5" height="13.1"/>
</g>
<g id="Layer_1">
	<path class="st2" d="M164.5,55.2c0.8-0.2,1.5-0.3,2.2-0.4c1.2-0.3,1.8-1.2,1.7-2.4c-0.1-1.1-0.8-1.7-2.5-2
		c-11.9-2.3-23.8-4.7-35.7-6.9c-1.7-0.3-3.5-1-5.3-0.6c-4.8,1-9.6,1.9-14.4,2.9c-7.8,1.6-15.6,3.1-23.3,4.7
		c-1.5,0.3-2.2,1.1-2.1,2.2c0,1.1,0.7,1.8,2.1,2.1c12.7,2.7,25.5,5.4,38.2,8c0.4,0.1,0.9,0.1,1.3,0.1c9.2-1.9,18.4-3.7,27.6-5.6"/>
	<path class="st2" d="M147.4,59.7c-0.4,0.1-0.7,0.1-1,0.2c-5.7,1.5-11.4,3-17,4.5c-1.6,0.4-3.2,0.9-4.8,0.5
		c-4.7-1.3-9.5-2.6-14.3-3.9c-1.8-0.5-3.6-1-5.5-1.5c0,2,0,3.9,0,5.8v0.9v3.1h42.6v-4h0C147.4,63.4,147.4,61.6,147.4,59.7z"/>
</g>
</svg>
