<?xml version="1.0" encoding="utf-8"?>
<!-- Generator: Adobe Illustrator 19.0.1, SVG Export Plug-In . SVG Version: 6.00 Build 0)  -->
<svg version="1.1" xmlns="http://www.w3.org/2000/svg" xmlns:xlink="http://www.w3.org/1999/xlink" x="0px" y="0px"
	 viewBox="0 0 240.9 155.9" style="enable-background:new 0 0 240.9 155.9;" xml:space="preserve">
<style type="text/css">
	.st0{fill:#0057A0;}
	.st1{fill:none;}
	.st2{fill:#F4F4F4;}
</style>
<g id="Layer_2">
	<circle class="st0" cx="125.2" cy="78" r="59.5"/>
	<path class="st1" d="M155,40.1"/>
</g>
<g id="Layer_1">
	<path class="st2" d="M88.2,110.1c0-11.8,0-23.6,0-35.4c0.4-0.5,0.8-1.1,1.3-1.4c5.6-3.8,11.3-7.6,17-11.3c1.9-1.2,3.9-0.1,4.3,2.1
		c0.1,0.6,0.1,1.2,0.1,1.9c0,2.2,0,4.5,0,7.2c1.2-0.4,2.3-0.5,3.1-1.1c4.5-2.9,8.9-5.9,13.3-8.8c0.6-0.4,1.3-0.9,1.9-1.3
		c2-1.1,4.1-0.1,4.3,2.2c0.1,0.7,0,1.4,0,2.2c0,2.1,0,4.2,0,6.5c2,0,3.8,0,5.7,0c0,6.3,0,12.5,0,18.6c0.7-5.4,1.2-10.7,1.7-16.1
		c1-11.1,1.9-22.2,2.9-33.3c0.2-2,1.1-3,3.1-3c2.5-0.1,5-0.1,7.5,0c2,0.1,3,1,3.1,3c0.6,9,1.1,18.1,1.7,27.1
		c0.8,13.1,1.6,26.3,2.4,39.4c0.2,3-0.6,3.8-3.5,3.8c-22,0-44,0-66,0C90.3,112.3,88.9,111.8,88.2,110.1z M130.8,92.6
		c-2,0-3.9,0-5.7,0c0,2.9,0,5.6,0,8.5c1.7,0,3.3,0,4.9,0c0.3,0,0.7-0.5,0.7-0.8C130.8,97.8,130.8,95.2,130.8,92.6z M96.7,92.5
		c0,2.7,0,5.2,0,7.7c0,0.3,0.4,0.8,0.7,0.8c1.6,0.1,3.2,0,4.9,0c0-3,0-5.7,0-8.6C100.4,92.5,98.7,92.5,96.7,92.5z M116.5,101
		c0-2.9,0-5.7,0-8.4c-1.9,0-3.8,0-5.5,0c0,2.9,0,5.6,0,8.4C112.8,101,114.6,101,116.5,101z M96.7,78.4c0,2.7,0,5.2,0,7.7
		c0,0.3,0.4,0.7,0.6,0.7c1.6,0.1,3.3,0,5,0c0-3,0-5.7,0-8.5C100.4,78.4,98.7,78.4,96.7,78.4z M110.9,86.9c1.7,0,3.2,0,4.7,0
		c0.3,0,0.9-0.5,0.9-0.8c0.1-2.5,0-5,0-7.6c-2,0-3.8,0-5.7,0C110.9,81.3,110.9,84,110.9,86.9z M125.1,86.9c1.7,0,3.3,0,4.9,0
		c0.3,0,0.8-0.4,0.8-0.7c0.1-2.6,0-5.1,0-7.7c-2,0-3.8,0-5.7,0C125.1,81.3,125.1,84,125.1,86.9z"/>
</g>
</svg>
