<?xml version="1.0" encoding="utf-8"?>
<!-- Generator: Adobe Illustrator 19.2.0, SVG Export Plug-In . SVG Version: 6.00 Build 0)  -->
<svg version="1.1" xmlns="http://www.w3.org/2000/svg" xmlns:xlink="http://www.w3.org/1999/xlink" x="0px" y="0px"
	 viewBox="0 0 240.9 155.9" style="enable-background:new 0 0 240.9 155.9;" xml:space="preserve">
<style type="text/css">
	.st0{fill:#0068D1;}
	.st1{fill:none;}
	.st2{fill:#F4F4F4;}
</style>
<g id="Layer_2">
	<circle class="st0" cx="125.2" cy="78" r="59.5"/>
	<path class="st1" d="M155,40.1"/>
</g>
<g id="Layer_1">
	<path class="st2" d="M103.9,102.6c0.2-4.1,1-7.9,2.2-11.6c0.4-1.3,0.5-2-1.2-2.2c-1.9-0.3-3.5-1.1-5.5,0.6c-2,1.7-5.4-0.2-5.5-2.9
		c-0.1-1.3-0.6-2-1.6-2.6c-0.5-0.3-0.9-0.6-1.3-1c-3.4-3.1-3.4-6.8,0.1-9.8c3.5-3,7.7-4.2,12-5.4c3.4-0.9,3.4-0.9,2.5-4.4
		c-1.1-4.2-2.2-8.5-1.3-12.9c0.9-4.6,4.1-6.6,8.6-5c4.8,1.7,8.4,5.1,11.7,8.8c1.1,1.2,1.8,1.6,2.9,0c0.5-0.7,1.2-1.4,1.9-1.9
		c0.9-0.8,1.3-1.5,1.2-2.8c-0.1-2.8,2.6-4.6,5.2-3.6c0.9,0.3,1.6,0.3,2.5,0c5.3-2.3,8.8-0.3,9.7,5.4c0.6,4.4-0.5,8.6-1.6,12.7
		c-0.8,3-0.9,3,2.2,3.7c2.6,0.6,5.1,1.4,7.5,2.5c1.2,0.6,2.5,1.2,3.6,2c5.3,3.6,5.3,8.3,0,12c-3.8,2.6-8.1,3.8-12.6,4.8
		c-1.5,0.3-1.6,0.8-1.1,2.1c0.5,1.4,0.9,2.4,2.5,3.1c2.4,1,2.7,4.3,0.7,6.1c-0.8,0.8-1,1.5-1,2.5c0,8.1-4.7,10.8-11.7,6.8
		c-3.6-2.1-6.6-4.9-9.3-8c-0.8-0.9-1.2-0.9-2,0c-1.9,2.2-4,4.2-6.4,6c-0.9,0.7-1.8,1.3-2.8,1.9c-2.7,1.5-5.5,3-8.6,1.2
		C104.2,108.7,104.1,105.5,103.9,102.6z"/>
	<path class="st0" d="M125.1,88.5c-4,1.3-6.3-1.3-8.3-5.2c-2.8-5.4-3-5.3,0.1-10.5c3-5.3,3-5.3,9-5.3c6.2,0,6.2,0,9.3,5.4
		c2.9,5.1,2.9,5.1,0,10.1C132.1,88.5,132.1,88.5,125.1,88.5z"/>
	<path class="st0" d="M106.4,53.7c0.1-2.2-0.2-4.8,2.2-6.1c2.3-1.2,4.3,0.2,6.2,1.3c3.4,2,6.2,4.9,8.9,7.8c0.6,0.7,0.5,1.1,0,1.7
		c-1.5,2-3,4-4.4,6c-0.5,0.7-1.1,0.9-1.9,1c-2.3,0.2-4.7,0.5-7,0.8c-0.9,0.1-1.4,0-1.7-1C107.5,61.5,106.5,57.7,106.4,53.7z"/>
	<path class="st0" d="M110,89.9c2.6,0.3,5.2,0.5,7.9,0.7c0.7,0.1,1.1,0.5,1.5,1c1.5,2,2.9,4,4.4,6c0.4,0.5,0.7,0.9,0.1,1.6
		c-3.1,3.4-6.3,6.7-10.5,8.7c-4.2,2.1-6.6,0.6-6.9-4c-0.3-4.7,0.9-9.1,2.3-13.4C109,89.8,109.3,89.6,110,89.9z"/>
	<path class="st0" d="M161.1,77.5c0,1.8-0.7,2.8-1.7,3.6c-4.1,3.3-9.1,4.4-14.1,5.6c-0.8,0.2-0.9-0.4-1.1-0.9c-1-2.3-2-4.7-3.1-7
		c-0.3-0.6-0.2-1.1,0-1.7c1-2.3,2-4.5,3-6.8c0.3-0.7,0.6-1.2,1.5-1c4.5,1.1,9,2.2,12.9,4.9C159.8,75.1,160.9,76.2,161.1,77.5z"/>
	<path class="st0" d="M90.9,78c0-1.5,0.9-2.5,2-3.3c4.1-3.1,8.9-4.3,13.8-5.4c0.7-0.2,0.9,0.2,1.2,0.8c1,2.4,2.1,4.8,3.2,7.2
		c0.3,0.6,0.2,1-0.1,1.6c-1,2.3-2.1,4.7-3.1,7c-0.3,0.9-0.8,1-1.6,0.8c-1-0.3-2-0.5-3-0.7c-0.9-0.2-1.5-0.6-1.9-1.6
		c-0.9-2.1-2.9-2.9-5-2.2C94.2,83,90.9,80.4,90.9,78z"/>
	<path class="st0" d="M142,108.9c-1.5-0.1-2.8-0.6-4.1-1.4c-3.7-2.1-6.7-5.1-9.6-8.2c-0.5-0.6-0.5-0.9-0.1-1.6
		c1.6-2,3.1-4.1,4.6-6.2c0.5-0.7,1.1-0.9,1.9-0.9c2.1-0.2,4.3-0.5,6.4-0.7c0.7-0.1,1.7-0.7,2,0.3c0.4,1.3,1.6,2.6,0.6,4
		c-2.1,3.2-1.9,4.5,1.3,6.8c0.2,0.2,0.5,0.3,0.6,0.5c0.7,1.4-0.4,5.7-1.6,6.6C143.3,108.6,142.7,108.9,142,108.9z"/>
	<path class="st0" d="M145.6,53.6c-0.1,4-1.1,7.9-2.3,11.8c-0.3,0.9-0.7,1-1.5,0.9c-2.5-0.3-4.9-0.6-7.4-0.8c-0.8-0.1-1.2-0.5-1.7-1
		c-1.4-2-2.8-4-4.3-5.8c-0.7-0.8-0.7-1.4,0.1-2c0.7-0.6,1.3-1.3,1.9-1.9c0.9-1,1.7-1.8,3.5-1.3c2.2,0.7,4.6-1.1,4.5-3.4
		c-0.1-2.4,1.6-2.4,3-2.7c1.6-0.4,2.8,0.4,3.5,1.9C145.5,50.6,145.7,52.1,145.6,53.6z"/>
	<path class="st0" d="M130.3,65.1c-3,0-5.6,0-8.6,0c1.3-1.8,2.5-3.4,3.7-5c0.6-0.8,0.9-0.2,1.2,0.2C127.9,61.8,129,63.3,130.3,65.1z
		"/>
	<path class="st0" d="M135.2,88c1.4-2.4,2.6-4.6,4-7c1.3,1.7,1.8,3.7,2.6,5.5c0.4,0.7-0.1,1-0.8,1.1C139.1,87.6,137.3,88.2,135.2,88
		z"/>
	<path class="st0" d="M116.9,68.1c-1.3,2.4-2.6,4.6-4,7c-1.3-1.7-1.8-3.7-2.6-5.5c-0.3-0.7,0.1-1,0.8-1.1
		C112.9,68.4,114.8,67.8,116.9,68.1z"/>
	<path class="st0" d="M116.9,88c-2.1,0.2-4-0.4-5.9-0.5c-0.7,0-1.1-0.4-0.7-1.1c0.8-1.8,1.4-3.7,2.6-5.5
		C114.2,83.3,115.5,85.6,116.9,88z"/>
	<path class="st0" d="M139.2,75.1c-1.3-2.3-2.6-4.6-4-7c2.1-0.3,4,0.3,5.9,0.4c0.7,0,1,0.5,0.7,1.1
		C140.9,71.5,140.4,73.4,139.2,75.1z"/>
	<path class="st0" d="M121.7,91c3,0,5.6,0,8.6,0c-1.3,1.7-2.4,3.2-3.6,4.8c-0.5,0.7-0.9,0.8-1.4,0C124.2,94.3,123.1,92.8,121.7,91z"
		/>
	<path class="st2" d="M131.6,78.1c0,3.1-2.5,5.5-5.6,5.4c-3.1,0-5.5-2.4-5.5-5.5c0-3.2,2.5-5.6,5.7-5.5
		C129.3,72.6,131.6,75,131.6,78.1z"/>
</g>
</svg>
