<?xml version="1.0" encoding="utf-8"?>
<!-- Generator: Adobe Illustrator 19.2.0, SVG Export Plug-In . SVG Version: 6.00 Build 0)  -->
<svg version="1.1" xmlns="http://www.w3.org/2000/svg" xmlns:xlink="http://www.w3.org/1999/xlink" x="0px" y="0px"
	 viewBox="0 0 240.9 155.9" style="enable-background:new 0 0 240.9 155.9;" xml:space="preserve">
<style type="text/css">
	.st0{fill:#0068D1;}
	.st1{fill:#F4F4F4;}
</style>
<g id="Layer_2">
	<circle class="st0" cx="125.2" cy="78" r="59.5"/>
</g>
<g id="Layer_1">
	<path class="st1" d="M152.1,115.7c-6.9-6.9-13.8-13.8-20.7-20.7c0.9-0.9,1.8-1.8,2.8-2.7c0.2-0.2,0.2-0.3,0-0.5
		c-1-0.9-1.9-1.9-2.8-2.8c-0.1-0.1-0.2-0.2-0.3-0.2c-0.5,0.5-1,1.1-1.6,1.6c-0.5,0.5-1.1,1-1.6,1.5c-0.3,0.3-0.6,0.7-1,1
		c-0.3,0.3-0.6,0.6-0.9,0.8c-0.3,0.3-0.6,0.6-0.9,0.9c-0.1,0.1-0.1,0.3,0,0.4c0.4,1,0.8,1.9,1.2,2.9c0.2,0.7,0.3,1.4,0.4,2.1
		c0.1,0.5,0.1,1.1,0.1,1.7c0,0.7-0.2,1.4-0.4,2.1c-0.2,0.6-0.6,1.2-1.1,1.6c-0.6,0.7-1.5,1-2.3,1.2c-0.7,0.2-1.5,0.3-2.3,0.1
		c-0.1,0-0.2,0-0.3,0c-0.7-0.1-1.3-0.2-2-0.4c-0.8-0.2-1.5-0.5-2.2-0.8c-0.8-0.3-1.5-0.7-2.2-1.1c-0.6-0.3-1.2-0.6-1.7-1
		c-0.7-0.5-1.4-1-2.2-1.6c-0.6-0.5-1.3-1-1.9-1.5c-0.5-0.4-0.9-0.8-1.5-1.3c-0.4,0.4-0.8,0.7-1.2,1.1c-0.5,0.5-1,1-1.5,1.5
		c-0.4,0.4-0.7,0.7-1.1,1.1c-0.5,0.5-0.9,0.9-1.4,1.4c-0.5,0.5-1,1-1.5,1.4c-0.1,0.1-0.1,0.3-0.1,0.4c0.3,1.1-0.5,2.6-1.6,2.9
		c-0.8,0.2-1.5,0.2-2.2-0.2c-1.1-0.6-1.5-1.6-1.3-2.8c0.2-1,0.9-1.7,1.9-2c0.4-0.1,0.8,0,1.2,0c0.2,0,0.4,0,0.5-0.2c1-1,2-1.9,3-2.9
		c0.8-0.7,1.5-1.5,2.2-2.2c0.4-0.4,0.7-0.7,1.1-1c0.2-0.2,0.2-0.3,0-0.5c-1.2-1.2-2.2-2.5-3.2-3.9c-0.6-0.9-1.2-1.8-1.8-2.8
		c-0.5-0.9-1-1.8-1.3-2.7c-0.4-1-0.7-1.9-0.9-2.9c-0.2-1-0.3-2-0.2-2.9c0.1-1.4,0.7-2.6,1.8-3.5c0.6-0.5,1.3-0.7,2-0.9
		c0.9-0.2,1.9-0.1,2.8-0.1c0.5,0,0.9,0.2,1.4,0.3c0.8,0.2,1.6,0.5,2.4,0.8c0.3,0.1,0.7,0.3,1,0.5c0.2,0.1,0.4,0.2,0.6,0.3
		c0.1,0,0.3,0,0.4-0.1c0.6-0.6,1.2-1.2,1.9-1.9c0.8-0.7,1.5-1.5,2.3-2.2c0.5-0.5,0.9-0.9,1.4-1.4c0.2-0.3,0.2-0.3,0-0.6
		c-0.7-0.7-1.3-1.3-2-2c-0.2-0.2-0.3-0.2-0.4,0c-0.9,0.9-1.7,1.7-2.6,2.6c-0.1,0.1-0.1,0.1-0.2,0.2c-6.9-6.9-13.7-13.8-20.6-20.6
		c3.7-3.7,7.4-7.4,11.1-11.1c6.9,6.9,13.8,13.8,20.7,20.7c-0.7,0.6-1.3,1.3-2,1.9c-0.3,0.3-0.6,0.6-0.9,0.9c-0.1,0.1-0.1,0.2,0,0.4
		c0.7,0.7,1.4,1.3,2,2c0.2,0.2,0.3,0.2,0.5,0c0.5-0.5,1-0.9,1.4-1.4c0.8-0.8,1.5-1.5,2.3-2.3c0.8-0.8,1.6-1.6,2.4-2.4
		c0.8-0.8,1.6-1.6,2.4-2.4c0.2-0.2,0.3-0.1,0.4,0c0.5,0.5,1,1,1.6,1.6c1.1,1.1,2.2,2.2,3.3,3.3c1.3,1.3,2.5,2.5,3.8,3.8
		c1.6,1.6,3.2,3.2,4.8,4.8c0.5,0.5,1,1,1.6,1.5c0.2,0.2,0.2,0.3,0,0.5c-0.3,0.3-0.6,0.6-0.9,0.9c-0.3,0.3-0.7,0.7-1,1
		c-0.3,0.3-0.7,0.6-1,0.9c-0.3,0.3-0.6,0.7-1,1c-0.3,0.3-0.7,0.7-1,1c-0.3,0.3-0.6,0.6-0.9,1c-0.3,0.3-0.6,0.6-0.9,0.9
		c-0.3,0.3-0.6,0.6-0.9,0.9c-0.4,0.4-0.8,0.8-1.2,1.3c0.3,0.3,0.5,0.5,0.8,0.8c0.8,0.8,1.5,1.5,2.3,2.3c0.2,0.2,0.3,0.2,0.5,0
		c0.8-0.8,1.6-1.6,2.5-2.5c0.1-0.1,0.2-0.2,0.3-0.3c6.9,6.9,13.8,13.8,20.7,20.7C159.5,108.3,155.8,112,152.1,115.7z M106.8,95.4
		c0.3-0.3,0.6-0.6,0.8-0.8c0.9-0.9,1.8-1.8,2.7-2.6c0.2-0.2,0.2-0.1,0.4,0c0.4,0.4,0.8,0.8,1.2,1.2c0.4,0.4,0.3,0.4,0,0.7
		c-0.1,0-0.1,0.1-0.2,0.2c-1,1-2,2-3,3c-0.2,0.2-0.2,0.3,0,0.4c0.8,0.7,1.7,1.5,2.5,2.2c0.8,0.6,1.6,1.2,2.4,1.7
		c0.9,0.6,1.8,1.1,2.7,1.5c0.6,0.3,1.2,0.5,1.8,0.8c0.7,0.3,1.5,0.5,2.3,0.6c0.7,0.1,1.5,0.2,2.2,0c0.4-0.1,0.8-0.3,1.1-0.7
		c0.5-0.6,0.6-1.3,0.7-2c0-0.6-0.1-1.2-0.2-1.7c-0.2-1-0.5-2-1-2.9c-0.4-0.8-0.7-1.5-1.1-2.2c-0.4-0.8-0.9-1.5-1.5-2.3
		c-0.6-0.9-1.3-1.7-2-2.6c-0.4-0.5-0.8-0.9-1.3-1.4c-0.8-0.8-1.5-1.6-2.3-2.3c-0.6-0.6-1.3-1.1-1.9-1.6c-0.7-0.6-1.4-1.1-2.2-1.6
		c-0.5-0.3-0.9-0.6-1.4-0.9c-0.6-0.3-1.1-0.7-1.7-0.9c-0.7-0.3-1.4-0.6-2.2-0.9c-0.7-0.2-1.4-0.4-2.1-0.5c-0.6-0.1-1.3,0-1.9,0.1
		c-0.7,0.1-1.2,0.6-1.5,1.3c-0.1,0.3-0.2,0.6-0.2,1c-0.1,0.4-0.1,0.7-0.1,1.1c0.1,0.8,0.3,1.6,0.6,2.3c0.2,0.8,0.5,1.6,0.9,2.3
		c0.5,1,1.1,2,1.7,3c0.4,0.6,0.8,1.2,1.3,1.8c0.7,0.9,1.5,1.8,2.2,2.7C106.6,95.3,106.7,95.4,106.8,95.4z"/>
</g>
</svg>
