<?xml version="1.0" encoding="utf-8"?>
<!-- Generator: Adobe Illustrator 19.2.0, SVG Export Plug-In . SVG Version: 6.00 Build 0)  -->
<svg version="1.1" xmlns="http://www.w3.org/2000/svg" xmlns:xlink="http://www.w3.org/1999/xlink" x="0px" y="0px"
	 viewBox="0 0 240.9 155.9" style="enable-background:new 0 0 240.9 155.9;" xml:space="preserve">
<style type="text/css">
	.st0{fill:#0068D1;}
	.st1{fill:none;}
	.st2{fill:#F4F4F4;}
</style>
<g id="Layer_2">
	<circle class="st0" cx="125.2" cy="78" r="59.5"/>
	<path class="st1" d="M155,40.1"/>
</g>
<g id="Layer_1">
	<path class="st2" d="M106.7,89.8c-3,4.4-5.8,8.8-8.7,13.1c0.5,0.5,0.9,1,1.4,1.6c4.6-2.9,9.1-5.9,13.6-8.8
		c-0.5,4.1-0.5,4.1-21.7,16.1C94.5,100.6,102.5,89.4,106.7,89.8z"/>
	<path class="st2" d="M155.8,45.9C141.4,51,130.5,60.4,121,71.6c-1.3,1.5-3.9,2.8-6,2.9c-8.1,0.5-12.8,4.9-16.2,11.5
		c3.9,0,7.3,0,10.8,0c-0.8,3.3-1.4,6.1-1.9,8.4c2.6-0.5,5.4-1,9.1-1.6c-0.2,3.4-0.3,6.6-0.5,9.9c5.5-2.2,10.9-5.7,11-11.2
		c0.2-7.3,5-10.4,9.6-14.2c2.2-1.9,4.4-3.8,6.4-5.9c7.4-7.6,12.9-16.2,16.3-26.6C157.9,45.3,156.9,45.6,155.8,45.9z M141.5,65
		c-1.9,0-3.4-1.5-3.4-3.3c0-1.8,1.5-3.3,3.4-3.3c0,0,0.1,0,0.1,0c0,0,0,0,0,0c0,0,0,0,0,0.1c1.8,0.1,3.1,1.5,3.1,3.3
		C144.8,63.5,143.3,65,141.5,65z"/>
</g>
</svg>
