<?xml version="1.0" encoding="utf-8"?>
<!-- Generator: Adobe Illustrator 19.2.0, SVG Export Plug-In . SVG Version: 6.00 Build 0)  -->
<svg version="1.1" xmlns="http://www.w3.org/2000/svg" xmlns:xlink="http://www.w3.org/1999/xlink" x="0px" y="0px"
	 viewBox="0 0 240.9 155.9" style="enable-background:new 0 0 240.9 155.9;" xml:space="preserve">
<style type="text/css">
	.st0{fill:#007EFF;}
	.st1{fill:none;}
	.st2{fill:#F4F4F4;}
</style>
<g id="Layer_2">
	<circle class="st0" cx="125.2" cy="78" r="59.5"/>
	<path class="st1" d="M155,40.1"/>
</g>
<g id="Layer_1">
	<path class="st2" d="M140.1,52.7h-32c-1.5,3.2-2.1,6.9-1.5,10.6c1.7,10.3,12,16.9,22,14.2c8.5-2.3,14-10.4,13.1-19
		C141.5,56.5,140.9,54.5,140.1,52.7z"/>
	<path class="st2" d="M152.3,96.6c-3.3-9.3-8.6-16.2-16.1-20.3c-0.5-0.3-0.8-0.2-1.2,0.1c-3.2,2-5.8,2.5-9.1,2.8
		c-4.5,0.4-8.4-0.7-12.8-2.9c-0.2-0.1-0.6-0.2-0.8-0.1c-3.5,1.7-6.5,4.3-9.2,7.5c-4.9,5.9-7.9,13.2-9.3,21.5c-0.3,2-0.5,4.1-0.8,6.1
		c3.6,0.6,7.3,1.1,11.2,1.5V93.9h0v-3.7h40v3.7v7.4v11.5c3.9-0.4,7.7-0.9,11.2-1.5C154.9,106.1,154,101.2,152.3,96.6z"/>
	<path class="st2" d="M125.2,42.5c1.1,0.2,2.1,0.3,3.2,0.6c7.2,1.7,12.6,8.1,13.3,15.5c0.9,8.7-4.7,16.8-13.1,19
		c-10,2.7-20.4-3.9-22-14.2c-1.6-9.7,4.6-18.7,14.2-20.5c0.7-0.1,1.4-0.2,2.2-0.3C123.7,42.5,124.4,42.5,125.2,42.5z"/>
	<path class="st2" d="M144,107.9c1.6-0.3,3.2-0.6,4.7-1V90.1c-1-1.1-2.3-2-3.7-2.7c-3.4-1.6-6.9-3-10.4-4.5c-0.2-0.1-0.5,0-0.6,0.2
		c-0.6,0.6-1.1,1.4-1.7,1.9c-3,2.8-6.5,4.2-10.7,3.2c-3.1-0.7-5.4-2.5-7.3-5c-0.3-0.4-0.5-0.4-0.9-0.3c-1.8,0.8-3.6,1.4-5.4,2.2
		c-2.1,1-4.4,1.8-6.2,3.1c-1,0.7-1.8,1.4-2.6,2.2v16.4c1.6,0.4,3.3,0.8,5,1c0-0.5,0-0.9,0-1.4c0-3.8,0-7.5,0-11.3
		c0-1.5,0.9-2.6,2.4-2.7c0.5,0,1.1,0.1,1.5,0.3c5.1,1.9,10.2,3.7,15.4,5.6c0.5,0.2,0.9,0.2,1.4,0c5.1-1.9,10.2-3.8,15.4-5.6
		c0.5-0.2,1.1-0.3,1.6-0.3c1.5,0.1,2.3,1.2,2.3,2.8c0,3.8,0,7.6,0,11.4C144,107.1,144,107.5,144,107.9z"/>
	<path class="st2" d="M123.5,110.1c0,2.8,0,5.6,0,8.4c0,1.1-0.2,1.3-1.2,0.9c-5.3-2-10.5-4-15.8-6c-0.8-0.3-1.1-0.7-1.1-1.6
		c0-5.6,0-11.2,0-16.8c0-1,0.2-1.2,1.1-0.8c5.3,2,10.7,4.1,16,6.1c0.7,0.2,0.9,0.6,0.9,1.3C123.4,104.5,123.5,107.3,123.5,110.1
		C123.5,110.1,123.5,110.1,123.5,110.1z"/>
	<path class="st2" d="M124.8,110.1c0,2.8,0,5.6,0,8.4c0,1.1,0.2,1.3,1.2,0.9c5.3-2,10.5-4,15.8-6c0.8-0.3,1.1-0.7,1.1-1.6
		c0-5.6,0-11.2,0-16.8c0-1-0.2-1.2-1.1-0.8c-5.3,2-10.7,4.1-16,6.1c-0.7,0.2-0.9,0.6-0.9,1.3C124.8,104.5,124.8,107.3,124.8,110.1
		C124.8,110.1,124.8,110.1,124.8,110.1z"/>
</g>
</svg>
