<?xml version="1.0" encoding="utf-8"?>
<!-- Generator: Adobe Illustrator 19.2.0, SVG Export Plug-In . SVG Version: 6.00 Build 0)  -->
<svg version="1.1" xmlns="http://www.w3.org/2000/svg" xmlns:xlink="http://www.w3.org/1999/xlink" x="0px" y="0px"
	 viewBox="0 0 240.9 155.9" style="enable-background:new 0 0 240.9 155.9;" xml:space="preserve">
<style type="text/css">
	.st0{fill:#007EFF;}
	.st1{fill:none;}
	.st2{fill:#F4F4F4;}
</style>
<g id="Layer_2">
	<circle class="st0" cx="125.2" cy="78" r="59.5"/>
	<path class="st1" d="M155,40.1"/>
</g>
<g id="Layer_1">
	<path class="st2" d="M140.1,52.7h-32c-1.5,3.2-2.1,6.9-1.5,10.6c1.7,10.3,12,16.9,22,14.2c8.5-2.3,14-10.4,13.1-19
		C141.5,56.5,140.9,54.5,140.1,52.7z"/>
	<path class="st2" d="M123.9,113.8c11.3,0,21.9-0.9,31.3-2.6c-0.3-5.2-1.3-10-2.9-14.7c-3.3-9.3-8.6-16.2-16.1-20.3
		c-0.5-0.3-0.8-0.2-1.2,0.1c-3.2,2-5.8,2.5-9.1,2.8c-4.5,0.4-8.4-0.7-12.8-2.9c-0.2-0.1-0.6-0.2-0.8-0.1c-3.5,1.7-6.5,4.3-9.2,7.5
		c-4.9,5.9-7.9,13.2-9.3,21.5c-0.3,2-0.5,4.1-0.8,6.1C102.2,112.9,112.7,113.8,123.9,113.8z"/>
	<path class="st2" d="M154.2,40.5c0.6-0.1,1.2-0.2,1.7-0.4c0.9-0.2,1.4-0.9,1.3-1.8c-0.1-0.9-0.6-1.3-2-1.6
		c-9.3-1.8-18.7-3.6-28-5.4c-1.4-0.3-2.7-0.8-4.2-0.4c-3.8,0.8-7.5,1.5-11.3,2.3c-6.1,1.2-12.2,2.4-18.3,3.7
		c-1.1,0.2-1.7,0.8-1.7,1.7c0,0.9,0.6,1.4,1.7,1.7c10,2.1,20,4.2,30,6.3c0.3,0.1,0.7,0.1,1,0c7.2-1.5,14.4-2.9,21.6-4.4"/>
	<path class="st2" d="M140.7,44c-0.3,0.1-0.6,0.1-0.8,0.1c-4.4,1.2-8.9,2.3-13.3,3.5c-1.2,0.3-2.5,0.7-3.8,0.4
		c-3.7-1.1-7.5-2-11.2-3c-1.4-0.4-2.8-0.7-4.3-1.1c0,1.6,0,3,0,4.6v0.7v2.4h33.4v-3.1h0C140.8,46.9,140.7,45.5,140.7,44z"/>
</g>
</svg>
